<svg width="18" height="15" viewBox="0 0 18 15" fill="none" xmlns="http://www.w3.org/2000/svg">
<path fill-rule="evenodd" clip-rule="evenodd" d="M8.99935 5.3296C7.80234 5.3296 6.82943 6.3034 6.82943 7.50041C6.82943 8.69652 7.80234 9.66943 8.99935 9.66943C10.1964 9.66943 11.1702 8.69652 11.1702 7.50041C11.1702 6.3034 10.1964 5.3296 8.99935 5.3296ZM8.99942 11.0195C7.0581 11.0195 5.47949 9.44092 5.47949 7.5005C5.47949 5.55919 7.0581 3.97968 8.99942 3.97968C10.9407 3.97968 12.5202 5.55919 12.5202 7.5005C12.5202 9.44092 10.9407 11.0195 8.99942 11.0195Z" fill="#001833"/>
<mask id="mask0_1_5681" style="mask-type:luminance" maskUnits="userSpaceOnUse" x="0" y="0" width="18" height="15">
<path fill-rule="evenodd" clip-rule="evenodd" d="M0 0.252686H18V14.7473H0V0.252686Z" fill="white"/>
</mask>
<g mask="url(#mask0_1_5681)">
<path fill-rule="evenodd" clip-rule="evenodd" d="M1.41274 7.49966C3.08675 11.1978 5.90647 13.3965 8.99979 13.3974C12.0931 13.3965 14.9128 11.1978 16.5869 7.49966C14.9128 3.80243 12.0931 1.60372 8.99979 1.60282C5.90737 1.60372 3.08675 3.80243 1.41274 7.49966ZM9.00164 14.7476H8.99804H8.99714C5.27471 14.7449 1.93209 12.1358 0.0546754 7.76625C-0.0182251 7.59615 -0.0182251 7.40355 0.0546754 7.23345C1.93209 2.86481 5.27561 0.255694 8.99714 0.252994C8.99894 0.252094 8.99894 0.252094 8.99984 0.252994C9.00164 0.252094 9.00164 0.252094 9.00254 0.252994C12.725 0.255694 16.0676 2.86481 17.945 7.23345C18.0188 7.40355 18.0188 7.59615 17.945 7.76625C16.0685 12.1358 12.725 14.7449 9.00254 14.7476H9.00164Z" fill="#001833"/>
</g>
</svg>
